<svg width="46" height="46" viewBox="0 0 46 46" fill="none" xmlns="http://www.w3.org/2000/svg">
<path d="M17.5907 28.4092C18.2314 29.05 18.2314 30.0911 17.5907 30.7318C17.2703 31.0522 16.8493 31.2124 16.4284 31.2124C16.0074 31.2124 15.5884 31.0522 15.2661 30.7318C14.0955 29.5613 12.1898 29.5613 11.0173 30.7318C10.3765 31.3726 9.33539 31.3726 8.69465 30.7318C8.05186 30.0911 8.05391 29.05 8.69465 28.4092C11.1466 25.9552 15.1389 25.9552 17.5887 28.4092H17.5907ZM41.0386 35.7198C41.0448 35.8615 41.0715 36.0012 41.0715 36.1429C41.0715 41.5787 36.6501 46 31.2143 46C27.7869 46 24.7659 44.2401 23 41.5807C21.2339 44.2422 18.2131 46 14.7857 46C9.34985 46 4.92859 41.5786 4.92859 36.1429C4.92859 35.9971 4.94502 35.8656 4.95323 35.728C1.96323 33.6498 0 30.1938 0 26.2857C0 23.1581 1.25472 20.2279 3.46646 18.0777C3.23851 16.9503 3.22413 15.7654 3.49521 14.5825C4.10514 11.9355 5.94514 9.90452 8.2677 8.90429C8.24511 8.67429 8.2143 8.44018 8.2143 8.21429C8.2143 3.68615 11.9005 0 16.4286 0C19.1249 0 21.5009 1.32454 23 3.33708C24.4992 1.32459 26.8751 0 29.5715 0C34.0996 0 37.7858 3.68615 37.7858 8.21429C37.7858 8.44018 37.7755 8.66608 37.7529 8.89404C40.1227 9.92491 41.9196 12.0278 42.509 14.5802C42.78 15.7384 42.7883 16.9295 42.5418 18.0794C44.6714 20.1679 46 23.0737 46 26.2853C46 30.07 44.1149 33.5838 41.0386 35.7193V35.7198ZM21.3569 36.1429V14.8393C19.8783 14.9728 18.5722 15.8168 17.8987 17.164C17.6091 17.739 17.0301 18.0717 16.4283 18.0717C16.1819 18.0717 15.9314 18.0162 15.6952 17.8971C14.884 17.4905 14.5555 16.5048 14.9601 15.6936C16.1963 13.2232 18.6257 11.6645 21.3591 11.5269V8.21452C21.3591 5.49762 19.1474 3.28594 16.4305 3.28594C13.7136 3.28594 11.5019 5.49762 11.5019 8.21452C11.5019 8.21862 11.504 8.22478 11.504 8.23094C12.1118 8.23094 12.7279 8.28228 13.3481 8.42398C14.2311 8.62729 14.7835 9.51032 14.5802 10.3934C14.3769 11.2764 13.4939 11.8288 12.6109 11.6255C9.96998 11.0156 7.31271 12.6729 6.70288 15.3199C6.21208 17.4474 7.15056 19.6077 9.03984 20.6979C9.82431 21.1518 10.0954 22.156 9.64152 22.9425C9.33759 23.4702 8.78518 23.7639 8.21636 23.7639C7.93707 23.7639 7.65574 23.6941 7.39698 23.5442C6.41126 22.9754 5.60214 22.2176 4.9512 21.3551C3.88541 22.7577 3.28983 24.4724 3.28983 26.2836C3.28983 30.8118 6.97599 34.4979 11.5041 34.4979C12.4118 34.4979 13.147 35.2331 13.147 36.1408C13.147 37.0485 12.4118 37.7836 11.5041 37.7836C10.4055 37.7836 9.3458 37.6193 8.33958 37.3298C8.90226 40.3855 11.5739 42.7121 14.7901 42.7121C18.4146 42.7121 21.3615 39.7631 21.3615 36.1406L21.3569 36.1429ZM42.7141 26.2857C42.7141 21.7576 39.0279 18.0714 34.4998 18.0714C33.5654 18.0714 32.6434 18.2295 31.7541 18.5376C30.906 18.8374 29.9613 18.3836 29.6615 17.5272C29.3637 16.6709 29.8155 15.7344 30.6719 15.4346C31.9082 15.0034 33.1957 14.7857 34.4977 14.7857C36.2514 14.7857 37.9087 15.1923 39.3975 15.8967C39.3769 15.7057 39.3523 15.5126 39.3071 15.3237C38.8718 13.4447 37.4199 12.0237 35.5142 11.6109C35.0706 11.5144 34.6866 11.2392 34.4546 10.849C34.2205 10.4588 34.1589 9.99062 34.2821 9.55322C34.4299 9.03572 34.4977 8.61062 34.4977 8.21428C34.4977 5.49739 32.286 3.28571 29.5691 3.28571C26.8522 3.28571 24.6405 5.49739 24.6405 8.21428V27.9286H25.8953C27.534 27.9286 29.0085 27.0168 29.7416 25.5506C30.1482 24.7394 31.1339 24.4088 31.9451 24.8174C32.7563 25.2241 33.0848 26.2098 32.6803 27.0209C31.3865 29.6084 28.7846 31.2143 25.8933 31.2143H24.6386V36.1429C24.6386 39.7654 27.5854 42.7143 31.21 42.7143C34.8345 42.7143 37.7814 39.7654 37.7814 36.1429C37.7814 34.7075 37.3276 33.3439 36.4671 32.2001C35.9229 31.4752 36.0687 30.4443 36.7936 29.9001C37.5186 29.3538 38.5474 29.5017 39.0936 30.2266C39.5454 30.8283 39.8945 31.4813 40.1944 32.1549C41.7674 30.6312 42.7079 28.5304 42.7079 26.2858L42.7141 26.2857Z" fill="black"/>
</svg>
