<svg width="28" height="46" viewBox="0 0 28 46" fill="none" xmlns="http://www.w3.org/2000/svg">
<path fill-rule="evenodd" clip-rule="evenodd" d="M19.098 0.00664717C19.6775 0.0650434 20.1312 0.554684 20.1312 1.1499V4.10795C20.1312 5.96771 21.1172 7.69044 22.7231 8.63153L23.06 8.82919L23.2532 8.94823C25.2387 10.2015 26.4494 12.3892 26.4494 14.7499C26.4494 15.9358 26.1394 17.0925 25.5666 18.1123C26.8222 19.3611 27.5993 21.0883 27.5993 22.9997C27.5993 24.9111 26.8222 26.6361 25.5666 27.8849C26.1394 28.9046 26.4494 30.0614 26.4494 31.2495C26.4494 33.6102 25.2387 35.7978 23.2532 37.0512L23.06 37.1703L22.7231 37.3679C21.1172 38.309 20.1312 40.0317 20.1312 41.8915V44.8495C20.1312 45.4852 19.6168 45.9995 18.9812 45.9995H8.61813C7.98247 45.9995 7.46814 45.4852 7.46814 44.8495V41.8915C7.46814 40.0902 6.54275 38.4168 5.02667 37.4578L4.87618 37.3679L4.53927 37.1703C2.43923 35.9372 1.14998 33.6844 1.14998 31.2496C1.14998 30.0637 1.45994 28.9047 2.03271 27.8872C0.777159 26.6384 0 24.9112 0 22.9998C0 21.0884 0.777159 19.3612 2.03271 18.1123C1.45997 17.0926 1.14998 15.9359 1.14998 14.75C1.14998 12.3152 2.43923 10.0624 4.53927 8.82925L4.87618 8.6316L5.02667 8.54176C6.54275 7.58267 7.46814 5.90938 7.46814 4.10805V1.15L7.47488 1.0332C7.53328 0.453727 8.02292 0 8.61814 0H18.9812L19.098 0.00664717ZM8.61761 25.8744C7.55071 25.8744 6.52654 26.2832 5.75611 27.0132L5.60338 27.1637L4.71168 28.1003C3.90083 28.9493 3.4494 30.0768 3.4494 31.2493C3.4494 32.8687 4.3074 34.3668 5.70222 35.1867L6.04137 35.3843L6.25475 35.5146C8.43793 36.8936 9.7676 39.2992 9.7676 41.8912V43.6993H17.8307V41.8912C17.8307 39.2162 19.2479 36.7388 21.5569 35.3846L21.8961 35.187L22.0241 35.1061C23.3448 34.2728 24.1489 32.8196 24.1489 31.2496C24.1489 30.1513 23.7513 29.0912 23.0348 28.2624L22.8866 28.1007L21.9478 27.1147C21.1908 26.3241 20.1419 25.8749 19.0481 25.8749H17.943C17.5162 25.8749 17.1097 26.0478 16.8133 26.351L16.7571 26.4139C15.3017 28.0738 12.7703 28.1816 11.1846 26.688L11.0341 26.5375L10.9129 26.4117C10.5849 26.068 10.1312 25.8749 9.6573 25.8749L8.61761 25.8744ZM3.47189 19.9313C2.74418 20.7466 2.29943 21.8203 2.29943 22.9994C2.29943 24.1785 2.74415 25.2522 3.47189 26.0653L3.94132 25.5756L4.17491 25.342C5.37205 24.21 6.9623 23.5744 8.61765 23.5744H9.65758C10.7604 23.5744 11.816 24.0258 12.5774 24.8232L12.6965 24.949L12.7594 25.0096C13.404 25.6183 14.4327 25.5734 15.0256 24.8973L15.1671 24.7446C15.8949 23.9989 16.8966 23.5744 17.9433 23.5744H19.0483C20.7711 23.5744 22.4219 24.2797 23.6123 25.5284L24.1267 26.0652C24.8544 25.2521 25.2992 24.1786 25.2992 22.9994C25.2992 21.8202 24.8544 20.7466 24.1267 19.9313L23.6123 20.4703C22.4219 21.7192 20.7711 22.4244 19.0483 22.4244H17.9433C16.8966 22.4244 15.8949 21.9999 15.1671 21.2542L15.0256 21.1014C14.4327 20.4254 13.404 20.3804 12.7594 20.9891L12.6965 21.0498L12.5774 21.1756C11.816 21.9729 10.7604 22.4244 9.65758 22.4244H8.61765C6.9623 22.4244 5.3721 21.7887 4.17491 20.6567L3.94132 20.4231L3.47189 19.9313ZM9.76748 4.10749C9.76748 6.69944 8.43781 9.10498 6.25462 10.4842L6.04125 10.6144L5.7021 10.8121C4.30728 11.6319 3.44928 13.13 3.44928 14.7495C3.44928 15.9219 3.90074 17.0494 4.71156 17.8985L5.60326 18.8351L5.75599 18.9856C6.52636 19.7155 7.55059 20.1243 8.61749 20.1243H9.65742C10.1313 20.1243 10.5851 19.9312 10.913 19.5875L11.0343 19.4617L11.1847 19.3113C12.7705 17.8176 15.3018 17.9254 16.7572 19.5853L16.8134 19.6482C17.1099 19.9514 17.5164 20.1243 17.9431 20.1243H19.0482C20.142 20.1243 21.191 19.6751 21.9479 18.8845L22.8867 17.8985L23.035 17.7368C23.7515 16.908 24.149 15.8479 24.149 14.7496C24.149 13.1795 23.3449 11.7264 22.0242 10.8931L21.8962 10.8122L21.5571 10.6146C19.2481 9.26018 17.8308 6.78277 17.8308 4.10796V2.2999H9.76772L9.76748 4.10749Z" fill="black"/>
</svg>
