<svg width="47" height="47" viewBox="0 0 47 47" fill="none" xmlns="http://www.w3.org/2000/svg">
<path d="M45.783 38.3192L43.194 36.8451V26.75L45.5812 25.427C45.9673 25.2133 46.1084 24.7233 45.8928 24.3353C45.6772 23.9463 45.1873 23.811 44.8011 24.0227L42.3995 25.3545L33.8629 20.3974V10.3064L36.5931 8.88628C36.987 8.68149 37.1399 8.19642 36.9341 7.80345C36.7283 7.40945 36.2423 7.25765 35.8522 7.46142L33.0831 8.90167L24.4739 3.84296V1.30255C24.4739 0.859655 24.1142 0.5 23.6713 0.5C23.2284 0.5 22.8688 0.859655 22.8688 1.30255V3.83878L14.053 8.92734L11.4838 7.47527C11.0968 7.25377 10.6058 7.39295 10.3902 7.77909C10.1716 8.16524 10.3079 8.65521 10.694 8.87273L13.2546 10.32V20.4487L4.38405 25.4456L1.69804 23.9286C1.3119 23.7071 0.819996 23.8453 0.604406 24.2314C0.385862 24.6176 0.522083 25.1075 0.908228 25.327L3.58058 26.8369V36.9611L0.913119 38.4446C0.525038 38.6602 0.385862 39.1483 0.601452 39.5363C0.748472 39.8009 1.02183 39.9499 1.30405 39.9499C1.43538 39.9499 1.56967 39.9166 1.69305 39.848L4.37447 38.3568L12.9115 43.3166V45.6964C12.9115 46.1393 13.2712 46.5 13.7141 46.5C14.157 46.5 14.5166 46.1394 14.5166 45.6964V43.3217L23.3751 38.2969L31.9167 43.2593V45.6964C31.9167 46.1393 32.2773 46.5 32.7203 46.5C33.1633 46.5 33.5239 46.1394 33.5239 45.6964V43.2642L42.3887 38.2353L44.9873 39.7148C45.1127 39.7854 45.2499 39.8207 45.3851 39.8207C45.6635 39.8207 45.9339 39.6737 46.0829 39.415C46.3023 39.0286 46.1671 38.5387 45.783 38.3192ZM14.8596 10.3151L23.6674 5.23115L32.2557 10.2789V20.3861L30.1119 21.6021L23.3713 25.3987L17.5067 21.9934L14.8596 20.4557V10.3151ZM13.719 41.9293L5.18558 36.9708V26.8361L14.0512 21.8432L17.2265 23.6869L22.5827 26.798V36.9001L13.719 41.9293ZM41.5869 36.8434L32.7242 41.8725L24.1908 36.9139V26.8054L30.8609 23.0233L33.0573 21.7865L41.5869 26.7402V36.8434Z" fill="black" stroke="black"/>
</svg>
