<svg width="15" height="14" viewBox="0 0 15 14" fill="none" xmlns="http://www.w3.org/2000/svg">
<path d="M14.4056 10.2307L9.13959 1.04133C8.76559 0.388667 8.09359 0 7.34159 0C6.58959 0 5.91759 0.389333 5.54359 1.04133L0.27759 10.2307C-0.0944099 10.88 -0.09241 11.6533 0.282923 12.3C0.65759 12.9473 1.32826 13.3333 2.07559 13.3333H12.6076C13.3556 13.3333 14.0256 12.9473 14.4003 12.3C14.7749 11.6527 14.7769 10.8793 14.4056 10.2307ZM6.67492 4H8.00826V8H6.67492V4ZM7.34159 10.6667C6.88226 10.6667 6.50826 10.2927 6.50826 9.83333C6.50826 9.374 6.88226 9 7.34159 9C7.80092 9 8.17492 9.374 8.17492 9.83333C8.17492 10.2927 7.80092 10.6667 7.34159 10.6667Z" fill="black"/>
</svg>
