<svg width="45" height="45" viewBox="0 0 45 45" fill="none" xmlns="http://www.w3.org/2000/svg">
<path fill-rule="evenodd" clip-rule="evenodd" d="M20.5294 0.769222C21.5134 -0.256407 23.1534 -0.256407 24.1374 0.769222L28.9642 5.80023C29.061 5.90111 29.1956 5.95686 29.3353 5.95397L36.3059 5.80959C37.7269 5.78015 38.8866 6.9398 38.8571 8.36085L38.7127 15.3314C38.7099 15.4712 38.7656 15.6058 38.8665 15.7026L43.8975 20.5294C44.9231 21.5134 44.9231 23.1534 43.8975 24.1374L38.8665 28.9642C38.7656 29.061 38.7099 29.1956 38.7127 29.3354L38.8571 36.3059C38.8866 37.7269 37.7269 38.8866 36.3059 38.8572L29.3353 38.7128C29.1956 38.7099 29.061 38.7656 28.9642 38.8665L24.1374 43.8975C23.1534 44.9232 21.5134 44.9231 20.5294 43.8975L15.7026 38.8665C15.6058 38.7656 15.4712 38.7099 15.3314 38.7128L8.36077 38.8572C6.9398 38.8866 5.78015 37.7269 5.80959 36.3059L5.95397 29.3354C5.95686 29.1956 5.90111 29.061 5.80023 28.9642L0.769222 24.1374C-0.256407 23.1534 -0.256407 21.5134 0.769222 20.5294L5.80023 15.7026C5.90111 15.6058 5.95686 15.4712 5.95397 15.3314L5.80959 8.36085C5.78015 6.9398 6.9398 5.78015 8.36087 5.80959L15.3314 5.95397C15.4712 5.95686 15.6058 5.90111 15.7026 5.80023L20.5294 0.769222ZM15.8334 30.9546L30.9547 15.8333L28.8334 13.712L13.7121 28.8333L15.8334 30.9546ZM20.3334 16.8333C20.3334 14.9003 18.7664 13.3333 16.8334 13.3333C14.9004 13.3333 13.3334 14.9003 13.3334 16.8333C13.3334 18.7663 14.9004 20.3333 16.8334 20.3333C18.7664 20.3333 20.3334 18.7663 20.3334 16.8333ZM27.8334 24.3333C29.7664 24.3333 31.3334 25.9003 31.3334 27.8333C31.3334 29.7663 29.7664 31.3333 27.8334 31.3333C25.9004 31.3333 24.3334 29.7663 24.3334 27.8333C24.3334 25.9003 25.9004 24.3333 27.8334 24.3333Z" fill="white"/>
</svg>
