<svg width="90" height="90" viewBox="0 0 90 90" fill="none" xmlns="http://www.w3.org/2000/svg">
<path fill-rule="evenodd" clip-rule="evenodd" d="M7.5 7.5H18.7502L18.75 52.5C18.75 55.6065 21.2685 58.125 24.375 58.125H78.75V63.75H24.375C18.1618 63.75 13.125 58.7132 13.125 52.5L13.1252 13.125H7.5V7.5Z" fill="#0BA84C"/>
<path d="M54.375 13.125H73.125V52.5H24.375V13.125H43.125V30H54.375V13.125Z" fill="#0BA84C"/>
<path fill-rule="evenodd" clip-rule="evenodd" d="M13.125 77.8125C13.125 73.1526 16.9026 69.375 21.5625 69.375C26.2224 69.375 30 73.1526 30 77.8125C30 82.4724 26.2224 86.25 21.5625 86.25C16.9026 86.25 13.125 82.4724 13.125 77.8125Z" fill="#0BA84C"/>
<path fill-rule="evenodd" clip-rule="evenodd" d="M63.75 77.8125C63.75 73.1526 67.5276 69.375 72.1875 69.375C76.8474 69.375 80.625 73.1526 80.625 77.8125C80.625 82.4724 76.8474 86.25 72.1875 86.25C67.5276 86.25 63.75 82.4724 63.75 77.8125Z" fill="#0BA84C"/>
</svg>
