<svg width="79" height="87" viewBox="0 0 79 87" fill="none" xmlns="http://www.w3.org/2000/svg">
<path d="M39.375 0C17.6625 0 0 17.6625 0 39.375V61.875C0 67.0444 4.20563 71.25 9.375 71.25H20.625C21.66 71.25 22.5 70.41 22.5 69.375V43.125C22.5 42.09 21.66 41.25 20.625 41.25H3.75V39.375C3.75 19.7306 19.7306 3.75 39.375 3.75C59.0194 3.75 75 19.7306 75 39.375V41.25H58.125C57.09 41.25 56.25 42.09 56.25 43.125V69.375C56.25 70.41 57.09 71.25 58.125 71.25H69.375C71.4938 71.25 73.4287 70.5169 75 69.3262V71.25C75 76.4194 70.7944 80.625 65.625 80.625H60V78.75C60 77.715 59.16 76.875 58.125 76.875H39.375C38.34 76.875 37.5 77.715 37.5 78.75V84.375C37.5 85.41 38.34 86.25 39.375 86.25H58.125C59.16 86.25 60 85.41 60 84.375H65.625C72.8625 84.375 78.75 78.4875 78.75 71.25V39.375C78.75 17.6625 61.0875 0 39.375 0Z" fill="#0BA84C"/>
</svg>
