<svg width="90" height="90" viewBox="0 0 90 90" fill="none" xmlns="http://www.w3.org/2000/svg">
<path fill-rule="evenodd" clip-rule="evenodd" d="M36.9925 5.72246L19.6715 33.8692L14.8809 30.9211L32.2019 2.77441L36.9925 5.72246ZM57.7985 2.77441L75.1195 30.9211L70.3289 33.8692L53.0079 5.72246L57.7985 2.77441Z" fill="#0BA84C"/>
<path fill-rule="evenodd" clip-rule="evenodd" d="M3.75 28.125H86.25V43.125H3.75V28.125Z" fill="#0BA84C"/>
<path fill-rule="evenodd" clip-rule="evenodd" d="M61.8749 75.2273L48.5225 61.8749L61.8749 48.5225L65.8523 52.4999L56.4773 61.8749L65.8523 71.2499L61.8749 75.2273Z" fill="#0BA84C"/>
<path fill-rule="evenodd" clip-rule="evenodd" d="M75.9375 64.6875H52.5V59.0625H75.9375C83.1863 59.0625 89.0625 64.9388 89.0625 72.1875C89.0625 79.4363 83.1863 85.3125 75.9375 85.3125H71.25V79.6875H75.9375C80.0796 79.6875 83.4375 76.3296 83.4375 72.1875C83.4375 68.0454 80.0796 64.6875 75.9375 64.6875Z" fill="#0BA84C"/>
<path fill-rule="evenodd" clip-rule="evenodd" d="M65.6316 79.4145C63.4231 81.3992 60.0222 81.3294 57.8976 79.2049L44.5452 65.8524C43.4903 64.7976 42.8976 63.3669 42.8976 61.875C42.8976 60.3833 43.4903 58.9524 44.5452 57.8976L53.6926 48.75H11.0166L14.0389 72.5644C14.7054 78.2301 19.5072 82.5 25.2119 82.5H64.7884C65.0697 82.5 65.3487 82.4897 65.6251 82.4692V79.6875C65.6251 79.596 65.6273 79.5049 65.6316 79.4145ZM33.0059 74.7924L31.6675 56.0567L26.0569 56.4576L27.3951 75.1933L33.0059 74.7924Z" fill="#0BA84C"/>
</svg>
