<svg width="72" height="72" viewBox="0 0 72 72" fill="none" xmlns="http://www.w3.org/2000/svg">
<path d="M26.1563 33.0298C24.6093 33.9153 23.3622 35.2428 22.575 36.842C21.7878 38.4412 21.4964 40.2392 21.7382 42.0052C21.98 43.7712 22.744 45.4247 23.9321 46.7534C25.1202 48.0822 26.6783 49.0256 28.4063 49.4627" stroke="black" stroke-width="3" stroke-linecap="round" stroke-linejoin="round"/>
<path d="M9.94165 35.5322C11.4138 37.1837 13.2186 38.5051 15.2375 39.4098C17.2565 40.3145 19.4439 40.7819 21.6563 40.7815" stroke="black" stroke-width="3" stroke-linecap="round" stroke-linejoin="round"/>
<path d="M39.6563 11.5313C39.6616 9.34028 38.866 7.2229 37.419 5.57765C35.9721 3.9324 33.9737 2.87276 31.8 2.59818C29.6263 2.3236 27.4271 2.85301 25.6165 4.08676C23.8059 5.32052 22.5087 7.17353 21.9691 9.29702C21.8644 9.29477 21.7621 9.28127 21.6563 9.28127C18.6143 9.27763 15.6364 10.1561 13.0834 11.8103C10.5304 13.4645 8.51185 15.8235 7.27214 18.6015C6.03244 21.3795 5.6248 24.4573 6.09861 27.4622C6.57241 30.4672 7.90733 33.2703 9.94168 35.532C8.79926 36.2827 7.84395 37.2851 7.14902 38.4623C6.45408 39.6395 6.03798 40.9602 5.93263 42.3231C5.82728 43.6861 6.03548 45.055 6.54125 46.325C7.04703 47.595 7.83695 48.7323 8.85043 49.6496C8.18524 51.8154 7.99514 54.0993 8.29311 56.3452C8.59108 58.5912 9.37011 60.7464 10.577 62.6639C11.7839 64.5813 13.3903 66.2158 15.2865 67.4557C17.1827 68.6957 19.3242 69.5119 21.5646 69.8488C23.8051 70.1856 26.0919 70.0351 28.2689 69.4076C30.4459 68.78 32.4618 67.6902 34.1792 66.2124C35.8966 64.7347 37.2749 62.9038 38.2201 60.8447C39.1654 58.7857 39.6552 56.5469 39.6563 54.2813H48.6563L54.4748 60.0998" stroke="black" stroke-width="3" stroke-linecap="round" stroke-linejoin="round"/>
<path d="M53.1562 44.1562H39.6562V36.2812" stroke="black" stroke-width="3" stroke-linecap="round" stroke-linejoin="round"/>
<path d="M59.9062 28.4064H39.6562V19.4064H48.6562L54.4748 13.5879" stroke="black" stroke-width="3" stroke-linecap="round" stroke-linejoin="round"/>
<path d="M57.6562 14.9062C60.1415 14.9062 62.1562 12.8915 62.1562 10.4062C62.1562 7.92097 60.1415 5.90625 57.6562 5.90625C55.171 5.90625 53.1562 7.92097 53.1562 10.4062C53.1562 12.8915 55.171 14.9062 57.6562 14.9062Z" stroke="black" stroke-width="3" stroke-linecap="round" stroke-linejoin="round"/>
<path d="M57.6562 67.7812C60.1415 67.7812 62.1562 65.7665 62.1562 63.2812C62.1562 60.796 60.1415 58.7812 57.6562 58.7812C55.171 58.7812 53.1562 60.796 53.1562 63.2812C53.1562 65.7665 55.171 67.7812 57.6562 67.7812Z" stroke="black" stroke-width="3" stroke-linecap="round" stroke-linejoin="round"/>
<path d="M64.4062 32.9062C66.8915 32.9062 68.9062 30.8915 68.9062 28.4062C68.9062 25.921 66.8915 23.9062 64.4062 23.9062C61.921 23.9062 59.9062 25.921 59.9062 28.4062C59.9062 30.8915 61.921 32.9062 64.4062 32.9062Z" stroke="black" stroke-width="3" stroke-linecap="round" stroke-linejoin="round"/>
<path d="M57.6562 48.6562C60.1415 48.6562 62.1562 46.6415 62.1562 44.1562C62.1562 41.671 60.1415 39.6562 57.6562 39.6562C55.171 39.6562 53.1562 41.671 53.1562 44.1562C53.1562 46.6415 55.171 48.6562 57.6562 48.6562Z" stroke="black" stroke-width="3" stroke-linecap="round" stroke-linejoin="round"/>
</svg>
