<svg width="72" height="72" viewBox="0 0 72 72" fill="none" xmlns="http://www.w3.org/2000/svg">
<path d="M8.15625 12.6562H64.4062C65.8981 12.6563 67.3288 13.2489 68.3837 14.3038C69.4386 15.3587 70.0312 16.7894 70.0312 18.2812V46.4062H2.53125V18.2812C2.53125 16.7894 3.12388 15.3587 4.17877 14.3038C5.23367 13.2489 6.66441 12.6562 8.15625 12.6562Z" stroke="black" stroke-width="3" stroke-linecap="round" stroke-linejoin="round"/>
<path d="M63.2812 52.0312V57.6562H9.28125V52.0312" stroke="black" stroke-width="3" stroke-linecap="round" stroke-linejoin="round"/>
<path d="M36.2812 57.6562V53.1562" stroke="black" stroke-width="3" stroke-linecap="round" stroke-linejoin="round"/>
<path d="M29.5312 57.6562V53.1562" stroke="black" stroke-width="3" stroke-linecap="round" stroke-linejoin="round"/>
<path d="M22.7812 57.6562V53.1562" stroke="black" stroke-width="3" stroke-linecap="round" stroke-linejoin="round"/>
<path d="M16.0312 57.6562V53.1562" stroke="black" stroke-width="3" stroke-linecap="round" stroke-linejoin="round"/>
<path d="M43.0312 57.6562V53.1562" stroke="black" stroke-width="3" stroke-linecap="round" stroke-linejoin="round"/>
<path d="M49.7812 57.6562V53.1562" stroke="black" stroke-width="3" stroke-linecap="round" stroke-linejoin="round"/>
<path d="M56.5312 57.6562V53.1562" stroke="black" stroke-width="3" stroke-linecap="round" stroke-linejoin="round"/>
<path d="M40.7812 20.5312H31.7812V38.5312H40.7812V20.5312Z" stroke="black" stroke-width="3" stroke-linecap="round" stroke-linejoin="round"/>
<path d="M22.7812 20.5312H13.7812V38.5312H22.7812V20.5312Z" stroke="black" stroke-width="3" stroke-linecap="round" stroke-linejoin="round"/>
<path d="M58.7812 20.5312H49.7812V38.5312H58.7812V20.5312Z" stroke="black" stroke-width="3" stroke-linecap="round" stroke-linejoin="round"/>
</svg>
