<svg width="72" height="72" viewBox="0 0 72 72" fill="none" xmlns="http://www.w3.org/2000/svg">
<path d="M25.0312 10.4062V3.65625" stroke="black" stroke-width="3" stroke-linecap="round" stroke-linejoin="round"/>
<path d="M47.5312 10.4062V3.65625" stroke="black" stroke-width="3" stroke-linecap="round" stroke-linejoin="round"/>
<path d="M36.2812 10.4062V3.65625" stroke="black" stroke-width="3" stroke-linecap="round" stroke-linejoin="round"/>
<path d="M10.4062 47.5312H3.65625" stroke="black" stroke-width="3" stroke-linecap="round" stroke-linejoin="round"/>
<path d="M10.4062 25.0312H3.65625" stroke="black" stroke-width="3" stroke-linecap="round" stroke-linejoin="round"/>
<path d="M10.4062 36.2812H3.65625" stroke="black" stroke-width="3" stroke-linecap="round" stroke-linejoin="round"/>
<path d="M68.9062 47.5312H62.1562" stroke="black" stroke-width="3" stroke-linecap="round" stroke-linejoin="round"/>
<path d="M68.9062 25.0312H62.1562" stroke="black" stroke-width="3" stroke-linecap="round" stroke-linejoin="round"/>
<path d="M68.9062 36.2812H62.1562" stroke="black" stroke-width="3" stroke-linecap="round" stroke-linejoin="round"/>
<path d="M25.0312 68.9062V62.1562" stroke="black" stroke-width="3" stroke-linecap="round" stroke-linejoin="round"/>
<path d="M47.5312 68.9062V62.1562" stroke="black" stroke-width="3" stroke-linecap="round" stroke-linejoin="round"/>
<path d="M36.2812 68.9062V62.1562" stroke="black" stroke-width="3" stroke-linecap="round" stroke-linejoin="round"/>
<path d="M56.5312 10.4062H16.0312C12.9246 10.4062 10.4062 12.9246 10.4062 16.0312V56.5312C10.4062 59.6379 12.9246 62.1562 16.0312 62.1562H56.5312C59.6379 62.1562 62.1562 59.6379 62.1562 56.5312V16.0312C62.1562 12.9246 59.6379 10.4062 56.5312 10.4062Z" stroke="black" stroke-width="3" stroke-linecap="round" stroke-linejoin="round"/>
<path d="M54.2812 18.2812H18.2812V54.2812H54.2812V18.2812Z" stroke="black" stroke-width="3" stroke-linecap="round" stroke-linejoin="round"/>
<path d="M44.1562 47.5312C46.0202 47.5312 47.5312 46.0202 47.5312 44.1562C47.5312 42.2923 46.0202 40.7812 44.1562 40.7812C42.2923 40.7812 40.7812 42.2923 40.7812 44.1562C40.7812 46.0202 42.2923 47.5312 44.1562 47.5312Z" stroke="black" stroke-width="3" stroke-linecap="round" stroke-linejoin="round"/>
</svg>
